<?xml version="1.0" encoding="UTF-8" standalone="no"?><!DOCTYPE svg PUBLIC "-//W3C//DTD SVG 1.1//EN" "http://www.w3.org/Graphics/SVG/1.1/DTD/svg11.dtd"><svg width="100%" height="100%" viewBox="0 0 110 161" version="1.1" xmlns="http://www.w3.org/2000/svg" xmlns:xlink="http://www.w3.org/1999/xlink" xml:space="preserve" xmlns:serif="http://www.serif.com/" style="fill-rule:evenodd;clip-rule:evenodd;stroke-linecap:round;stroke-linejoin:round;stroke-miterlimit:1.5;"><path d="M24.674,45.24c-4.554,-6.928 -15.379,-18.97 -15.909,-27.254c-0.601,-9.415 8.346,-18.92 17.693,-13.044c10.237,6.438 18.864,30.052 26.959,40.617" style="fill:none;stroke:#080000;stroke-width:6.26px;"/><path d="M41.454,52.594c9.986,-6.9 17.315,-14.629 23.938,-24.978c5.087,-7.949 9.348,-18.772 18.634,-22.977c10.299,-4.665 19.009,9.679 17.214,18.376c-2.822,13.67 -14.484,23.024 -22.607,33.522c-3.604,4.659 -6.249,10.085 -9.173,15.177" style="fill:none;stroke:#080000;stroke-width:6.26px;"/><path d="M42.838,50.983c-8.775,7.867 -17.711,15.257 -25.913,23.763c-2.261,2.345 -7.677,6.984 -7.723,10.61c-0.078,6.148 14.119,16.24 18.742,19.781c17.044,13.053 31.98,28.884 49.295,41.489c4.429,3.224 15.052,11.363 20.559,10.451c7.367,-1.219 9.588,-19.831 7.268,-25.271c-4.235,-9.929 -16.019,-12.102 -24.673,-16.544c-5.623,-2.886 -10.271,-7.355 -15.773,-10.397" style="fill:none;stroke:#080000;stroke-width:6.26px;"/><path d="M55.905,46.486c7.846,7.335 14.19,15.905 21.955,23.289c9.692,9.216 30.168,18.772 13.769,34.081c-2.759,2.577 -6.015,4.751 -9.107,6.903" style="fill:none;stroke:#080000;stroke-width:6.26px;"/><path d="M56.411,130.928c-10.884,8.805 -21.013,22.476 -35.753,24.492c-10.821,1.48 -20.383,-4.077 -16.737,-16.503c0.763,-2.601 2.275,-4.907 4.152,-6.84c3.124,-3.218 7.319,-4.979 10.765,-7.782c4.589,-3.733 8.541,-8.435 12.807,-12.542" style="fill:none;stroke:#080000;stroke-width:6.26px;"/><path d="M21.567,32.569c3.281,5.874 0.766,6.474 2.452,11.75c1.354,4.234 4.834,7.779 7.477,11.248" style="fill:none;stroke:#080000;stroke-width:6.26px;"/><path d="M54.469,47.52c-2.945,-0 0.893,-0.517 2.025,-0.517c0.055,-0 0.286,0.042 0.237,-0.091c-0.369,-0.996 -4.946,-2.827 -5.537,-1.763c-0.102,0.184 3.884,1.891 6.043,2.492c0.757,0.211 2.914,0.89 2.33,0.365c-1.327,-1.194 -5.923,-0.963 -7.664,-1.064c-0.416,-0.024 -1.25,-0.03 -1.25,-0.03c0,-0 2.582,0.749 3.816,1.276c2.152,0.919 5.577,3.434 8.001,3.434c0.291,-0 -0.509,-0.282 -0.776,-0.395c-1.016,-0.434 -2.065,-0.759 -3.106,-1.125c-1.139,-0.399 -9.679,-3.626 -10.467,-2.917c-0.22,0.198 0.566,0.174 0.844,0.274c1.095,0.394 2.184,0.81 3.275,1.215c2.252,0.836 6.97,1.289 8.779,2.917c0.274,0.247 -2.095,-0.167 -3.478,-0.456c-2.331,-0.486 -9.69,-1.915 -9.69,-1.762c-0,0.024 6.874,2.333 9.454,2.735c0.163,0.025 2.297,0.422 2.431,0.182c0.075,-0.135 -0.29,-0.109 -0.439,-0.152c-1.657,-0.477 -3.326,-0.915 -4.997,-1.337c-1.748,-0.441 -6.411,-2.402 -8.238,-1.58c-0.213,0.096 0.451,0.119 0.675,0.182c0.678,0.193 1.352,0.401 2.026,0.608c2.383,0.733 4.723,1.534 7.157,2.097c0.911,0.211 1.797,0.473 2.701,0.699c0.346,0.086 1.312,0.451 1.047,0.212c-1.524,-1.372 -7.209,-1.412 -9.251,-1.944c-1.026,-0.268 -2.043,-0.568 -3.072,-0.821c-0.466,-0.114 -1.878,-0.381 -1.419,-0.243c4.8,1.44 9.777,2.637 14.688,3.677c0.03,0.006 1.992,0.407 1.992,0.456c-0,0.27 -0.54,0.03 -0.811,0.03c-5.065,0 -10.009,-1.519 -15.058,-1.519c-2.986,-0 1.672,0.21 2.296,0.273c0.54,0.055 1.082,0.087 1.62,0.152c1.095,0.132 2.182,0.315 3.275,0.456c1.88,0.242 4.277,0.36 6.044,1.155c0.267,0.12 -0.585,0.037 -0.878,0.03c-1.104,-0.026 -2.208,-0.06 -3.309,-0.152c-3.011,-0.252 -5.956,-0.916 -8.947,-1.307c-0.901,-0.117 -1.797,-0.246 -2.701,-0.334c-0.303,-0.029 -1.189,-0.186 -0.912,-0.061c3.183,1.433 7.49,1.864 10.906,2.522c1.405,0.271 2.828,0.485 4.22,0.821c0.412,0.099 1.53,0.082 1.216,0.364c-0.455,0.41 -9.513,-1.317 -10.501,-1.519c-1.751,-0.358 -3.538,-0.79 -5.334,-0.79c-0.068,0 -0.27,0 -0.203,0c4.625,0 9.886,1.628 14.552,2.188c7.14,0.857 -1.717,0.99 -3.916,0.851c-2.089,-0.133 -4.226,-0.638 -6.314,-0.638c-0.275,-0 0.541,0.095 0.81,0.152c0.732,0.153 1.465,0.297 2.195,0.455c2.922,0.634 5.872,1.127 8.812,1.672c0.881,0.163 1.752,0.358 2.634,0.516c0.325,0.059 1.191,0.083 0.945,0.304c-2.328,2.095 -11.976,-2.127 -14.755,-2.127c-0.293,-0 0.587,0.031 0.878,0.061c0.285,0.029 2.096,0.289 2.195,0.304c3.124,0.463 6.186,1.071 9.352,1.185c1.138,0.041 2.274,0.083 3.41,0.121c0.282,0.01 1.054,0.188 0.845,0c-0.832,-0.748 -5.311,-0.637 -6.483,-0.911c-3.474,-0.812 -8.323,-1.224 -11.547,-2.674c-0.764,-0.344 -1.367,-1.801 -2.33,-1.945c-1.376,-0.206 -1.605,3.039 -2.329,3.039c-0.372,-0 -0.826,-3.769 -1.25,-3.616c-0.705,0.254 -1.526,3.297 -1.823,3.95c-0.27,0.595 -0.624,1.176 -1.013,1.701c-0.122,0.166 -0.337,0.723 -0.337,0.517c-0,-0.272 1.32,-0.24 1.384,-0.243c1.078,-0.047 10.027,0.122 10.331,-0.152c0.331,-0.298 -1.313,0.064 -2.667,0.091c-1.596,0.032 -3.239,0.023 -4.828,-0.152c-0.743,-0.081 -2.91,-0.241 -2.195,-0.456c1.362,-0.408 11.177,0.078 11.953,1.125c0.162,0.219 -0.538,0.106 -0.811,0.121c-0.855,0.048 -1.709,0.037 -2.566,0c-1.863,-0.08 -3.713,-0.334 -5.571,-0.486c-0.686,-0.056 -1.37,-0.091 -2.059,-0.091c-0.225,-0 -0.897,0.04 -0.675,-0c1.462,-0.263 15.3,0.036 16.071,0.729c0.269,0.243 -0.661,0.31 -1.013,0.395c-1.232,0.3 -2.492,0.521 -3.748,0.699c-3.082,0.436 -6.176,0.34 -9.251,0.881c-1.309,0.231 -3.984,0.183 -3.984,0.183c0,-0 0.579,-0.385 0.912,-0.456c2.123,-0.455 4.697,0.147 6.786,0.516c5.12,0.907 10.643,2.315 15.903,2.036c2.906,-0.154 5.763,-1.337 8.677,-1.337c0.073,0 1.148,-0.031 1.148,0.031c-0,0.078 -4.953,-0.031 -7.091,-0.031c-6.616,0 -15.41,1.108 -21.743,-1.063c-0.391,-0.134 -0.781,-0.299 -1.182,-0.395c-0.275,-0.066 -0.546,-0.139 -0.81,-0.243c-0.092,-0.037 -0.179,-0.084 -0.27,-0.122c-1.901,-0.798 -4.115,-1.027 -6.179,-0.82c-0.325,0.032 -0.979,-0.388 -0.979,-0.061c-0,0.072 1.242,0.088 1.283,0.091c2.561,0.159 5.042,0.947 7.563,1.367c6.632,1.106 13.493,-0.182 20.055,0.942c2.829,0.485 6.018,1.915 8.88,1.915c0.034,-0 -0.085,-0.03 -0.101,-0c-0.347,0.624 -2.85,0.39 -3.478,0.334c-2.415,-0.217 -4.884,-0.274 -7.327,-0.274c-7.309,0 -15.022,0.107 -22.216,-0.972c-1.173,-0.176 -6.493,0.118 -6.449,-0.365" style="fill:none;stroke:#080000;stroke-width:6.26px;"/><path d="M15.371,85.319c-0.778,-0.699 -0.822,-3.747 -0.304,-4.679c0.264,-0.475 -0.253,1.058 -0.405,1.58c-0.068,0.233 -0.852,3.191 -1.148,3.191c-0.022,-0 0.047,-0.261 0.067,-0.335c0.466,-1.676 0.865,-3.368 1.216,-5.074c0.138,-0.672 0.39,-2.636 0.574,-1.975c0.805,2.9 -0.946,6.522 -0.946,9.48c0,0.259 0.235,-0.461 0.338,-0.699c0.216,-0.496 0.414,-1.033 0.574,-1.549c0.277,-0.893 0.988,-5.715 1.891,-5.986c0.038,-0.012 -0.422,2.53 -0.507,2.977c-0.265,1.396 -1.633,4.95 -1.114,6.351c0.191,0.517 0.427,-1.019 0.574,-1.55c0.221,-0.795 0.014,-2 0.405,-2.704c0.1,-0.179 -0.063,0.406 -0.101,0.608c-0.127,0.664 -0.241,1.336 -0.338,2.005c-0.197,1.37 -0.574,2.835 -0.574,4.224c0,0.553 0.27,-1.074 0.405,-1.611c0.091,-0.358 0.62,-4.375 0.98,-4.375c0.134,-0 -0.048,4.5 -0.068,4.831c-0.037,0.617 -0.282,2.434 -0.068,1.854c0.314,-0.847 0.754,-4.305 1.52,-4.649c0.277,-0.125 -0.012,0.608 -0.034,0.911c-0.069,0.969 -0.314,2.166 -0.135,3.13c0.159,0.858 0.595,-3.072 1.114,-2.37c0.642,0.866 -0.269,3.161 0.507,3.859c0.459,0.413 0.82,-0.597 0.911,0.061c0.045,0.322 0.02,0.554 0.135,0.243c0.109,-0.293 0.246,-0.297 0.27,0.03c0.057,0.769 -0.636,2.31 0.135,2.31c0.489,-0 0.653,-1.172 0.777,-0.244c0.084,0.632 -0.078,2.054 0.405,0.821c0.041,-0.105 0.557,-1.14 0.574,-1.064c0.123,0.552 0.042,2.135 0.439,2.492c0.499,0.449 0.383,-2.47 0.709,-1.884c0.158,0.285 0.166,2.917 0.203,2.917c0.035,0 0.293,-1.166 0.304,-1.215c0.033,-0.15 0.694,-1.874 0.709,-1.854c0.388,0.525 -0.102,2.279 0.202,2.553c0.62,0.558 0.486,-3.205 0.709,-2.401c0.274,0.985 -0.476,2.607 0,3.464c0.56,1.007 0.03,-3.754 1.081,-3.282c0.092,0.042 0.005,0.203 -0,0.304c-0.037,0.696 -0.013,1.4 -0.034,2.097c-0.015,0.477 -0.101,1.905 -0.101,1.428c-0,-0.956 0.575,1.577 1.046,0.729c0.214,-0.384 0.363,0.717 0.405,0.851c0.101,0.318 -0.097,0.972 0.237,0.972c1.361,0 0.874,-5.348 1.181,-9.45c0.662,-8.832 3.782,-17.813 3.782,-26.618c-0,-0.672 -0.3,1.312 -0.405,1.976c-0.236,1.485 -0.43,2.978 -0.642,4.466c-0.694,4.884 -1.511,9.759 -2.363,14.616c-0.021,0.121 -0.108,1.704 -0.304,1.793c-0.042,0.019 0.034,-3.481 0.236,-5.895c0.085,-1.014 1.847,-12.906 1.385,-13.461c-0.075,-0.09 -1.846,5.163 -1.925,5.53c-0.703,3.274 -1.228,6.562 -1.688,9.875c-0.16,1.15 -0.275,2.278 -0.371,3.434c-0.039,0.458 0.172,1.675 -0.169,1.367c-0.265,-0.238 0.056,-0.71 0.101,-1.063c0.642,-5.088 0.785,-10.453 2.161,-15.406c0.082,-0.295 0.021,0.286 -0.372,2.522c-0.365,2.082 -0.538,2.744 -0.979,4.862c-0.832,4.004 -1.89,8.479 -1.89,12.61c-0,0.236 0.065,-0.466 0.101,-0.699c0.22,-1.424 0.339,-2.846 0.439,-4.284c0.234,-3.368 0.541,-6.707 0.945,-10.058c0.134,-1.113 0.23,-2.23 0.372,-3.342c0.073,-0.58 0.553,-2.243 0.27,-1.732c-2.654,4.777 -1.295,13.299 -3.714,17.654c-0.158,0.283 0.009,-0.649 0.033,-0.972c0.124,-1.631 0.211,-3.265 0.372,-4.893c0.334,-3.378 1.35,-7.014 1.35,-10.392c0,-0.517 -0.3,0.991 -0.439,1.489c-0.516,1.861 -0.436,1.782 -0.844,3.616c-0.675,3.041 -2.177,9.724 -2.194,9.724c-0.123,-0 -0.222,-1.892 0.776,-10.696c0.133,-1.174 0.521,-3.425 0.473,-3.403c-0.208,0.093 -2.254,7.311 -2.498,8.113c-0.042,0.136 -1.158,3.381 -1.216,3.312c-0.717,-0.861 0.665,-11.043 1.013,-12.61c0.067,-0.302 -0.11,0.608 -0.169,0.911c-0.154,0.79 -0.497,5.583 -1.452,6.442c-0.044,0.04 0.424,-1.644 0.676,-2.613c0.329,-1.268 0.514,-3.174 1.148,-4.315c0.281,-0.506 -0.856,2.147 -0.574,1.641c0.691,-1.245 9.638,-14.494 11.175,-14.494c0.719,-0 -0.731,1.238 -1.046,1.884c-0.822,1.684 -1.51,3.447 -2.094,5.226c-0.491,1.5 -1.046,3.895 -1.046,3.312c-0,-0.966 1.335,-2.81 1.722,-3.707c0.329,-0.764 1.08,-3.08 1.08,-2.248" style="fill:none;stroke:#080000;stroke-width:6.26px;"/><path d="M74.389,71.403c-0,1.226 -0.075,3.043 -0.203,4.406c-0.119,1.272 -0.099,1.155 -0.236,2.309c-0.184,1.55 -0.642,3.356 -0.574,1.732c0.098,-2.338 0.475,-4.73 1.08,-6.989c0.04,-0.147 0.023,-0.381 0.169,-0.425c0.002,-0.001 -0.099,2.099 -0.101,2.127c-0.077,1.089 -2.189,15.467 -1.688,12.61c0.098,-0.558 0.202,-1.114 0.304,-1.671c0.212,-1.163 0.348,-2.333 0.574,-3.495c0.283,-1.456 0.396,-3.588 1.316,-4.831c0.281,-0.378 0.175,0.928 0.203,1.398c0.095,1.595 0.017,3.209 -0.101,4.801c-0.269,3.63 -1.216,7.365 -1.216,10.999c0,0.282 0.137,-0.546 0.203,-0.82c0.215,-0.896 0.379,-1.797 0.54,-2.704c0.345,-1.942 0.398,-5.643 1.722,-7.232c0.195,-0.234 0.041,0.607 0.034,0.911c-0.025,0.976 -0.082,1.98 -0.203,2.948c-0.349,2.79 -0.834,5.569 -1.215,8.356c-0.18,1.315 -0.504,3.527 -0.541,3.494c-0.866,-0.779 -0.172,-5.417 -0.101,-6.411c0.017,-0.233 0.162,-1.863 0.203,-2.158c0.054,-0.389 -0.056,-1.417 0.236,-1.154c0.175,0.157 -0.093,1.818 -0.101,1.975c-0.145,2.775 -0.598,5.543 -1.148,8.265c-0.076,0.375 0.146,1.124 -0.236,1.124c-0.456,0 -0.045,-0.911 -0.034,-1.367c0.022,-0.981 0.086,-1.97 0.169,-2.948c0.069,-0.827 0.086,-2.07 0.506,-2.826c0.1,-0.18 -0.041,1.725 -0.068,2.553c-0.077,2.437 -0.168,4.891 -0.337,7.323c-0.035,0.497 -0.135,1.489 -0.135,1.489c-0,-0 -0.673,-4.758 0.743,-6.351c0.379,-0.427 0.164,1.132 0.202,1.702c0.098,1.472 -0.457,3.55 -0.067,4.953c0.016,0.058 0.08,-0.095 0.101,-0.152c0.369,-0.996 0.655,-3.17 1.587,-3.799c0.144,-0.097 0.521,2.097 0.641,2.097c0.991,0 1.717,-1.822 2.668,-1.945c1.08,-0.138 0.701,1.829 1.924,0.912c1.206,-0.905 2.198,-2.421 2.229,-2.309c0.521,1.877 -1.301,4.822 -2.296,6.016c-0.286,0.342 -0.811,1.064 -0.811,1.064c0,-0 0.742,-1.032 1.148,-1.52c1.933,-2.319 4.286,-7.207 7.226,-8.265c1.518,-0.546 -3.039,3.768 -3.039,3.768c-0,0 0.992,-0.741 1.452,-1.155c2.567,-2.31 7.067,-4.862 6.719,-8.933c-0.107,-1.242 -1.932,-1.947 -2.837,-2.613c-3.196,-2.354 -4.742,-6.095 -7.292,-8.964c-0.106,-0.119 -0.277,-0.242 -0.406,-0.334c-0.878,-0.632 -1.641,-1.249 -2.228,-2.188c-0.13,-0.208 -2.059,-2.795 -1.789,-2.795c1.794,-0 5.125,5.361 5.739,7.019c0.033,0.088 0.275,0.573 0.169,0.668c-0.695,0.626 -3.582,-3.853 -4.186,-3.464c-0.702,0.451 0.202,7.267 0.202,8.63c0,0.14 0.01,-2.809 -0.675,-4.042c-0.341,-0.613 -0.173,1.396 -0.203,2.097c-0.099,2.359 -0.169,7.08 -0.169,7.08c0,-0 -0.316,-2.952 0,-4.376c0.077,-0.346 -0.015,0.71 -0.033,1.064c-0.047,0.879 -0.071,0.768 -0.135,1.671c-0.09,1.257 0.208,5.769 -0.811,6.685c-0.128,0.115 0.034,-0.344 0.034,-0.517c0,-1.085 0.114,-2.308 0.473,-3.342c0.013,-0.038 0.073,-0.213 0.169,-0.213c0.365,0 -0.169,4.983 -0.169,5.5c-0,0.326 0.389,-0.522 0.574,-0.79c0.436,-0.635 1.094,-1.547 1.823,-1.853c1.521,-0.639 2.613,1.588 4.22,1.337c1.428,-0.224 2.487,-1.235 3.275,-2.371c0.451,-0.649 1.047,-2.917 1.047,-2.127c0,0.257 -0.361,-0.364 -0.54,-0.547c-0.534,-0.544 -1.018,-1.042 -1.688,-1.428c-1.472,-0.847 -3.21,-1.277 -4.761,-1.975c-0.071,-0.032 -0.517,-0.275 -0.574,-0.121c-0.185,0.498 2.21,2.419 2.532,2.795c0.241,0.282 0.631,1.084 0.811,0.76c0.189,-0.34 -0.102,-1.386 -0.169,-1.702c-0.146,-0.689 -0.45,-2.926 -0.979,-3.403c-0.279,-0.251 0.013,0.75 0.033,1.124c0.057,1.034 0.956,5.674 0.102,6.442c-0.393,0.354 -0.223,-1.033 -0.338,-1.55c-0.075,-0.339 -0.846,-4.605 -0.979,-4.557c-1.345,0.484 -0.628,4.582 -1.925,5.165c-0.209,0.094 -0.239,-2.371 -0.236,-2.431c0.04,-0.663 0.126,-1.559 -0.034,-0.851" style="fill:none;stroke:#080000;stroke-width:6.26px;"/><path d="M45.623,116.283c-0.7,-0.84 -1.227,-1.625 -1.587,-2.705" style="fill:none;stroke:#080000;stroke-width:6.26px;"/><path d="M40.626,110.023c1.544,0 3.114,1.3 4.693,1.611c4.313,0.849 11.333,0.118 15.666,-0.73c3.107,-0.608 5.952,-1.156 9.116,-1.306c0.585,-0.028 1.756,-0.061 1.756,-0.061c-0,-0 -1.104,0.154 -1.655,0.243c-3.026,0.489 -5.953,1.448 -8.744,2.704c-0.031,0.014 0.067,0.005 0.101,0c0.918,-0.118 1.847,-0.21 2.768,-0.304c0.736,-0.074 5.408,-1.27 5.977,-0.759c0.514,0.463 -1.346,0.327 -2.026,0.456c-0.901,0.169 -3.768,0.194 -4.389,1.033c-0.233,0.314 0.763,0.171 1.147,0.243c0.83,0.154 1.698,0.25 2.533,0.182c0.247,-0.02 0.743,-0.309 0.743,-0.061c-0,0.588 -1.056,1.408 -1.486,1.672c-1.857,1.139 -0.611,1.577 0.979,3.008c0.575,0.517 -1.502,0.373 -2.262,0.516c-1.253,0.236 -3.44,0.148 -4.356,1.246c-0.807,0.969 3.613,1.124 3.613,1.124c0,0 -0.385,0.026 -0.574,0.061c-0.395,0.074 -4.728,0.604 -4.625,0.881c0.151,0.41 1.951,0.684 2.329,0.76c0.431,0.086 1.644,0.355 1.317,0.061c-0.576,-0.519 -3.258,-0.064 -3.95,0.061c-0.05,0.009 -1.54,0.554 -1.452,0.607c1.342,0.806 4.693,0.183 4.693,0.183c0,-0 -3.693,-0.438 -4.626,0.82c-0.042,0.057 3.546,0.704 3.546,0.152c-0,-0.597 -3.808,1.219 -3.478,1.367c1.155,0.52 3.961,0.19 1.553,-0.364c-1.311,-0.302 -4.028,-1.331 -5.335,-0.547c-0.426,0.255 0.99,0.097 1.486,0.121c0.509,0.025 3.414,0.355 3.68,-0.364c0.289,-0.78 -4.478,-2.418 -4.963,-2.553c-1.359,-0.378 -3.024,-0.507 -4.254,-1.246c-0.47,-0.281 1.065,-0.259 1.587,-0.425c1.519,-0.483 4.592,-1.337 4.592,-1.337c-0,0 -0.969,0.049 -1.452,0.091c-1.914,0.168 -3.767,0.602 -5.672,0.821c-0.875,0.1 -2.634,-0.698 -2.634,0.182c-0,0.38 0.737,0.198 1.114,0.243c0.961,0.114 8.272,0.917 8.272,-1.063c0,-1.658 -4.936,-1.884 -5.875,-1.884c-0.137,-0 -3.341,0.307 -3.308,0.364c0.289,0.521 3.019,0.503 3.477,0.517c0.957,0.029 1.949,0.065 2.904,-0.031c0.798,-0.079 1.647,-0.283 2.431,-0.455c0.839,-0.185 1.639,-0.504 2.464,-0.699c1.679,-0.398 -4.278,-0.722 -5.098,-0.517c-0.062,0.016 -0.223,0.037 -0.27,0.122c-0.099,0.179 0.404,0.073 0.608,0.091c0.82,0.074 1.603,0.2 2.431,0.213c1.863,0.028 3.783,-0.107 5.605,-0.517c2.351,-0.529 2.936,-0.821 2.869,-0.881c-0.857,-0.772 -10.576,2.005 -12.728,2.005c-0.378,0 0.746,-0.124 1.114,-0.212c0.517,-0.124 6.035,-1.635 5.875,-2.067c-0.335,-0.904 -9.558,-2.238 -9.42,0.973" style="fill:none;stroke:#080000;stroke-width:6.26px;"/><path d="M31.948,103.065c0,-0.836 0.916,1.465 1.621,1.914c1.138,0.725 5.005,2.39 5.504,3.737c0.174,0.472 -0.898,-0.451 -1.351,-0.668c-1.059,-0.508 -3.816,-3.008 -4.794,-3.008c-0.286,-0 0.521,0.235 0.776,0.364c0.781,0.399 0.669,0.361 1.384,0.79c0.479,0.288 5.334,3.598 5.875,2.462c0.62,-1.302 -3.245,-3.831 -4.051,-4.376c-0.028,-0.019 -0.717,-0.57 -0.743,-0.547c-0.179,0.162 0.42,0.239 0.641,0.334c1.279,0.553 5.095,2.494 6.517,1.854c0.633,-0.285 -1.319,-0.439 -1.992,-0.608c-0.732,-0.184 -6.078,-1.146 -6.078,-2.279c0,-0.412 0.797,0.217 1.182,0.365c1.611,0.621 4.518,2.887 6.179,2.887c0.045,-0 -0.06,-0.073 -0.102,-0.092c-1.037,-0.466 -1.814,0.053 -2.566,0.73" style="fill:none;stroke:#080000;stroke-width:6.26px;"/><path d="M27.728,84.317c13.857,-3.049 15.417,-19.226 23.509,-20.007c3.623,-0.349 21.047,15.922 20.326,19.733c-0.684,3.613 -3.969,7.719 -6.004,10.629c-1.419,2.029 -7.142,10.137 -10.474,9.358c-3.646,-0.852 -6.737,-6.009 -9.365,-8.52c-3.83,-3.657 -7.547,-7.461 -11.024,-11.457" style="fill:none;stroke:#080000;stroke-width:6.26px;"/><path d="M40.997,60.342c-1.381,3.729 -5.807,8.668 -5.807,13.309c-0,0.237 0.405,-0.243 0.607,-0.364c0.637,-0.382 1.118,-0.961 1.52,-1.58c1.149,-1.773 2.252,-3.613 3.342,-5.379c0.37,-0.598 2.504,-2.965 1.553,-2.187" style="fill:none;stroke:#080000;stroke-width:6.26px;"/><path d="M62.099,63.259c-0.14,-0.094 2.962,1.992 3.714,2.796c2.797,2.989 6.169,5.683 8.576,8.933c0.072,0.098 0.38,0.532 0.304,0.669c-1.618,2.911 -9.566,-8.356 -12.965,-8.356" style="fill:none;stroke:#080000;stroke-width:6.26px;"/><path d="M72.296,100.239c-0.816,2.201 -1.968,3.916 -3.951,5.165c-0.35,0.221 -0.878,0.882 -0.878,0.882c0,-0 0.273,-0.668 0.406,-1.003c1.333,-3.361 2.289,-6.91 3.545,-10.301c0.467,-1.261 0.925,-2.554 1.215,-3.859c0.003,-0.013 0.044,-0.194 0.068,-0.152c0.211,0.38 -3.762,4.835 -4.052,5.409c-3.198,6.332 -7.491,12.277 -15.058,10.574c-6.008,-1.352 -11.168,-8.854 -15.396,-13.005c-1.862,-1.828 -2.855,-4.391 -4.727,-6.229c-0.275,-0.27 -0.558,-1.048 -0.844,-0.79c-0.897,0.807 0.104,14.01 1.823,15.041c0.587,0.352 -0.835,-6.507 0.709,-6.229c1.617,0.291 3.226,2.237 4.187,3.494c1.546,2.024 2.512,4.525 4.085,6.594c1.281,1.685 3.352,2.608 4.761,4.193c0.709,0.798 5.175,4.126 3.882,3.312c-1.895,-1.194 -4.213,-3.6 -5.739,-5.317" style="fill:none;stroke:#080000;stroke-width:6.26px;"/><path d="M41.488,45.483c-0.1,0 -0.17,-0.077 -0.237,-0.151c-1.147,-1.292 -7.661,-11.359 -4.828,-5.622c0.438,0.887 0.878,1.773 1.283,2.674c0.506,1.125 1.009,2.252 1.452,3.403c0.488,1.27 0.902,3.477 1.654,4.832c0.29,0.521 -0.624,-1.017 -0.945,-1.52c-0.635,-0.996 -0.896,-1.337 -1.654,-2.309c-2.6,-3.332 -6.38,-5.903 -8.272,-9.754c-0.123,-0.25 -0.546,-0.754 -0.27,-0.79c1.924,-0.247 7.31,9.89 7.9,11.304c0.735,1.759 2.026,5.348 2.026,5.348c0,-0 -0.251,-0.439 -0.405,-0.639c-2.301,-2.97 -5.216,-5.396 -7.597,-8.295c-0.093,-0.113 -3.108,-4.365 -2.768,-4.467c0.4,-0.12 1.889,3.059 1.992,3.282c0.665,1.455 1.504,3.118 1.654,4.74c0.005,0.056 0.05,0.502 -0.034,0.578c-0.099,0.089 -0.094,-0.254 -0.169,-0.365c-0.255,-0.383 -2.086,-3.288 -1.755,-3.586c0.064,-0.058 1.723,2.858 1.755,2.918c1.052,1.942 1.966,3.928 2.904,5.925c0.2,0.426 0.608,1.276 0.608,1.276c-0,-0 -0.48,-0.553 -0.777,-0.76c-2.099,-1.459 -3.763,-4.126 -4.355,-6.593c-1.934,-8.05 -2.352,-13.873 -7.631,-20.207c-0.313,-0.376 -2.038,-4.406 -2.296,-4.406c-0.387,0 0.07,0.773 0.135,1.155c0.334,1.954 1.159,4.036 1.047,6.047c-0.003,0.054 -0.111,0.85 -0.169,0.85c-0.442,0 -2.698,-6.606 -2.903,-8.082c-0.055,-0.393 -0.102,-1.185 -0.102,-1.185c0,-0 -0.055,1.036 0,1.549c0.247,2.291 1.891,4.552 1.891,6.837c0,0.564 -1.278,-2.802 -1.452,-3.312c-0.698,-2.043 -0.669,-5.492 -2.093,-7.201c-0.247,-0.296 -0.09,0.773 -0.034,1.154c0.213,1.436 0.777,4.285 0.777,4.285c-0,-0 -0.22,-0.746 -0.304,-1.125c-0.276,-1.241 -0.434,-3.915 -1.452,-4.831c-0.544,-0.489 0.319,1.43 0.54,2.127c1.258,3.961 2.11,7.019 1.756,7.019c-2.982,0 -3.47,-13.093 -2.802,-15.497c0.059,-0.212 0.318,-1.154 0.641,-1.154c0.435,-0 -0.337,0.802 -0.473,1.215c-0.37,1.126 -1.288,2.226 -1.451,3.403c-0.117,0.843 1.123,6.321 -0.068,6.321c-0.029,-0 0.577,-1.921 0.844,-2.978c0.461,-1.827 0.864,-3.742 1.553,-5.5c0.702,-1.789 1.374,-3.454 2.803,-4.74c1.116,-1.005 7.747,2.445 8.744,3.342c2.98,2.682 9.475,10.978 11.277,14.221c1.691,3.043 2.266,6.618 4.254,9.48c1.493,2.149 2.276,5.288 3.343,7.688c0.381,0.856 0.881,1.661 1.249,2.522c0.183,0.428 0.405,1.802 0.405,1.337c0,-2.646 -8.415,-8.979 -10.027,-11.881c-0.286,-0.515 0.378,1.116 0.574,1.671c0.546,1.553 1.059,3.12 1.586,4.68c0.25,0.736 0.475,1.468 0.676,2.218c0.069,0.258 0.333,0.969 0.135,0.79c-2.082,-1.873 -8.779,-10.338 -8.779,-12.762c0,-0.397 0.319,0.727 0.473,1.094c0.583,1.387 1.244,2.739 1.992,4.041c0.152,0.264 0.405,0.82 0.405,0.82c0,0 -0.458,-0.396 -0.675,-0.607c-1.045,-1.016 -1.924,-2.186 -2.802,-3.343c-1.771,-2.331 -3.228,-4.76 -4.457,-7.414c-0.481,-1.039 -0.904,-2.11 -1.283,-3.19c-0.01,-0.029 -0.275,-0.79 -0.27,-0.79c0.708,-0 2.039,3.053 2.329,3.555c0.276,0.476 0.878,1.948 0.878,1.397c0,-1.043 -5.87,-8.572 -6.685,-9.845c-0.705,-1.101 -1.402,-2.211 -2.059,-3.342c-0.149,-0.256 -0.702,-0.79 -0.406,-0.79c0.201,-0 0.832,0.793 0.912,0.881c1.558,1.713 2.952,3.57 4.187,5.53c0.003,0.006 0.579,0.755 0.506,0.821c-0.042,0.037 -0.786,-0.818 -0.81,-0.851c-0.666,-0.916 -2.528,-5.187 -1.756,-6.229c0.515,-0.696 0.93,1.461 1.351,2.218c0.813,1.464 2.15,5.222 3.849,5.986c1.017,0.458 -2.111,-2.993 -1.013,-3.19c2.479,-0.447 6.765,12.464 8.778,13.369c0.234,0.105 -0.342,-0.38 -0.506,-0.577c-0.465,-0.558 -0.784,-1.358 -1.081,-2.005c-0.941,-2.054 -1.933,-4.083 -2.87,-6.138c-0.364,-0.799 -1.88,-2.761 -1.08,-2.401c0.801,0.361 2.575,4.398 2.802,4.771c0.813,1.332 1.709,2.609 2.6,3.889c0.839,1.205 0.745,1.133 1.655,2.279c0.305,0.385 1.8,2.506 1.249,0.881c-0.907,-2.672 -2.719,-4.905 -3.849,-7.475c-0.135,-0.305 -0.586,-0.719 -0.338,-0.942c0.38,-0.341 3.862,4.559 4.085,4.892c0.433,0.646 2.404,2.868 2.128,3.738" style="fill:none;stroke:#080000;stroke-width:6.26px;"/><path d="M73.698,50.892c0.811,-0.729 1.453,-1.67 2.127,-2.552c3.52,-4.608 -6.247,9.502 -6.786,10.149c-0.083,0.098 -0.237,0.175 -0.237,0.303c0,0.25 0.355,-0.349 0.54,-0.516c0.521,-0.469 0.937,-1.018 1.419,-1.519c1.176,-1.227 2.583,-2.234 3.849,-3.373c0.448,-0.404 -0.769,0.933 -1.115,1.428c-0.188,0.27 -2.467,4.163 -2.431,4.163c0.774,-0 2.417,-3.593 2.735,-4.133c0.36,-0.611 0.734,-1.194 1.114,-1.792c0.135,-0.213 0.635,-0.742 0.406,-0.639c-1.328,0.598 -2.518,3.414 -3.275,4.558c-0.057,0.085 -1.451,2.492 -1.317,2.492c0.25,-0 0.3,-0.4 0.439,-0.608c0.771,-1.157 5.179,-10.619 4.862,-11.334c-0.027,-0.06 -2.978,3.501 -3.107,3.677c-0.473,0.646 -6.098,7.991 -6.178,7.991c-0.305,0 0.265,-0.549 0.405,-0.82c0.508,-0.986 0.954,-1.984 1.384,-3.008c1.073,-2.555 4.457,-7.16 4.457,-9.906c-0,-0.134 -2.291,2.46 -2.532,2.765c-0.438,0.555 -4.89,6.594 -5.132,6.594c-0.072,-0 1.184,-2.312 1.485,-2.948c1.001,-2.11 3.782,-6.034 3.782,-8.386c-0,-0.02 -0.645,0.462 -1.823,1.884c-1.392,1.679 -2.676,3.439 -4.086,5.105c-0.641,0.758 -1.267,1.534 -1.958,2.248c-0.2,0.207 -0.642,0.865 -0.642,0.578c0,-3.915 6.213,-7.528 6.213,-11.577c-0,-0.355 -0.534,0.47 -0.777,0.729c-0.692,0.738 -0.584,0.623 -1.215,1.337c-1.2,1.356 -3.156,4.945 -4.795,5.682c-0.299,0.135 0.243,-0.61 0.372,-0.912c0.354,-0.828 0.338,-0.727 0.743,-1.549c0.73,-1.485 3.308,-4.739 3.308,-6.351c0,-0.771 -1.136,1.042 -1.688,1.58c-0.436,0.425 -4.088,4.921 -4.625,4.68c-0.456,-0.205 2.498,-5.208 2.498,-5.835c0,-0.114 -0.173,0.153 -0.27,0.213c-1.172,0.73 -2.115,1.691 -3.14,2.613c-0.055,0.05 -1.215,1.021 -1.215,0.973c-0,-2.743 6.247,-6.592 8.001,-9.298c3.624,-5.591 14.91,-29.426 22.858,-28.776c5.539,0.453 4.982,4.544 6.314,8.539c2.81,8.431 -2.413,13.823 -6.348,20.905c-1.575,2.835 -2.722,5.899 -4.355,8.69c-1.098,1.877 -5.087,10.666 -7.394,10.666c-0.922,-0 0.869,-1.625 1.317,-2.431c0.773,-1.393 1.461,-2.827 2.228,-4.224c1.331,-2.423 6.955,-10.802 6.955,-13.187c0,-0.264 -0.342,0.402 -0.506,0.608c-0.921,1.153 -1.781,2.374 -2.668,3.555c-2.098,2.794 -8.292,11.607 -8.373,11.607c-0.449,0 0.437,-0.785 0.642,-1.185c0.386,-0.753 0.791,-1.497 1.181,-2.248c1.394,-2.684 2.745,-5.387 4.052,-8.113c0.512,-1.069 2.294,-3.76 1.587,-3.282c-2.598,1.754 -4.687,6.067 -6.516,8.569c-0.794,1.085 -0.775,0.991 -1.486,2.096c-0.321,0.5 -1.138,2.062 -0.979,1.489c0.964,-3.47 3.075,-6.879 4.558,-10.149c0.564,-1.243 1.046,-2.516 1.587,-3.767c0.137,-0.319 0.695,-1.098 0.371,-0.973c-3.418,1.319 -6.401,10.904 -9.622,12.063c-0.548,0.198 0.29,-1.13 0.506,-1.671c0.55,-1.378 0.516,-1.241 1.114,-2.583c1.212,-2.716 2.512,-5.372 3.917,-7.991c1.404,-2.617 1.685,-3.317 1.587,-3.282c-2.666,0.96 -5.757,7.152 -7.259,9.389c-0.54,0.804 -1.049,1.627 -1.587,2.431c-0.364,0.543 -1.289,2.24 -1.115,1.611c1.453,-5.23 7.961,-11.254 8.745,-16.196c0.036,-0.226 -1.518,1.937 -2.262,2.978c-1.382,1.932 -2.749,3.878 -4.052,5.864c-0.708,1.08 -1.943,3.178 -1.721,2.978c3.004,-2.704 4.201,-9.264 6.178,-12.823c0.311,-0.559 -0.7,1.072 -1.046,1.611c-0.804,1.249 -1.651,2.473 -2.431,3.737c-0.229,0.37 -1.005,1.333 -0.608,1.155c2.189,-0.985 8.608,-12.668 10.095,-15.345c0.245,-0.441 -0.66,0.764 -0.979,1.155c-0.907,1.113 -1.763,2.313 -2.532,3.525c-0.319,0.501 -1.447,1.72 -0.878,1.549c0.434,-0.13 6.989,-10.387 6.989,-10.635c-0,-0.294 -0.363,0.464 -0.54,0.699c-0.609,0.81 -1.217,1.619 -1.824,2.431c-0.068,0.091 -2.206,3.185 -2.059,3.251c0.331,0.149 1.191,-1.099 1.283,-1.215c1.745,-2.221 6.278,-9.694 10.635,-7.08c1.239,0.743 -0.369,4.608 -0.641,5.682c-1.046,4.118 -3.688,14.349 -6.82,17.168c-0.27,0.242 0.458,-0.561 0.675,-0.851c0.783,-1.045 1.469,-2.16 2.228,-3.221c2.128,-2.975 4.52,-5.767 6.685,-8.69c0.198,-0.267 -0.62,0.379 -0.709,0.699c-0.259,0.934 -0.726,1.81 -1.215,2.643c-1.369,2.332 -2.978,4.524 -4.221,6.928c-0.239,0.464 -0.641,1.429 -0.641,1.429c-0,-0 0.379,-0.505 0.506,-0.791c0.524,-1.178 1.031,-2.361 1.52,-3.555c1.4,-3.42 3.04,-6.811 4.321,-10.27c0.1,-0.269 -0.411,0.399 -0.607,0.608c-0.78,0.827 -1.489,1.723 -2.195,2.613c-2.269,2.859 -4.399,5.825 -6.618,8.721c-0.143,0.186 -0.17,0.577 -0.405,0.577c-1.051,-0 0.598,-2.017 0.946,-3.008c0.756,-2.157 1.565,-4.295 2.498,-6.381c0.397,-0.887 1.878,-3.52 1.351,-2.857c-1.012,1.275 -1.819,2.739 -2.701,4.102c-0.917,1.418 -0.88,1.338 -1.824,2.766c-0.51,0.772 -0.966,1.523 -1.451,2.309c-3.655,5.92 4.252,-6.749 4.591,-7.323c0.395,-0.665 0.809,-1.318 1.216,-1.975c0.005,-0.008 0.993,-1.477 0.878,-1.58c-0.219,-0.197 -0.419,0.413 -0.608,0.638c-3.291,3.91 -5.384,9.859 -9.116,13.218c-0.139,0.124 0.267,-0.617 2.093,-3.525c1.856,-2.955 3.766,-5.877 5.605,-8.842c0.169,-0.273 0.745,-0.606 0.506,-0.821c-0.221,-0.199 -3.138,3.43 -3.308,3.647c-1.361,1.725 -3.309,3.796 -4.086,5.894c-0.243,0.657 0.958,-1.022 1.418,-1.549c0.649,-0.743 2.184,-2.952 1.385,-0.578" style="fill:none;stroke:#080000;stroke-width:6.26px;"/><path d="M18.866,139.163c-0.816,-1.102 -0.813,-5.198 -1.215,-3.251c-0.366,1.768 -0.622,5.598 -1.857,6.988c-0.306,0.344 0.067,-4.764 0.067,-5.895c0,-0.37 -0.49,0.561 -0.675,0.882c-0.207,0.359 -1.362,3.767 -1.519,3.767c-0.92,0 0.537,-5.2 0.27,-5.682c-0.027,-0.048 -0.047,0.101 -0.068,0.152c-0.205,0.507 -1.45,4.315 -1.789,4.315c-0.304,0 0.553,-4.38 0.608,-4.801c0.018,-0.141 0.141,-0.425 -0,-0.425c-0.084,-0 -0.263,0.678 -0.27,0.699c-0.111,0.298 -0.249,0.586 -0.372,0.881c-0.088,0.211 -0.3,0.731 -0.405,0.942c-1.103,2.215 -2.23,4.35 -3.275,7.171c-0.041,0.11 -0.332,1.154 -0.439,1.154c-0.121,0 1.226,-6.109 1.722,-7.596c0.245,-0.734 1.067,-2.731 0.439,-2.279c-2.08,1.497 -2.25,10.95 -0,12.975c1.442,1.298 6.309,-2.075 7.023,-0.79c0.555,1 -3.682,2.53 -2.566,2.279c1.791,-0.403 4.102,0.573 5.841,-0.122c0.33,-0.132 1.046,-0.213 1.046,-0.213c0,0 -0.823,-0.523 -1.283,-0.668c-2.159,-0.68 -4.325,-2.649 -5.672,-4.467c-0.145,-0.195 -2.138,-3.11 -2.363,-2.704c-0.446,0.803 0.829,4.554 2.262,4.193c3.152,-0.794 4.277,-6.016 4.288,-6.016c0.04,-0 0.54,3.92 0.675,4.406c0.109,0.393 0.743,-1.381 0.743,-0.973c-0,1.528 0.906,5.249 2.701,5.895c2.784,1.002 5.387,-2.381 7.293,-3.525c5.732,-3.439 11.392,-7.864 16.679,-12.093c1.454,-1.163 6.381,-3.979 6.381,-5.986c0,-0.025 -0.043,-0.025 -0.067,-0.031c-3.216,-0.723 -5.966,4.884 -8.711,5.835c-0.19,0.065 -0.429,0.159 -0.608,0.03c-1.062,-0.765 3.067,-7.951 2.566,-9.754c-0.064,-0.231 -4.452,0.862 -2.093,1.216c0.553,0.083 1.202,0.273 1.755,0.273c0.567,0 -0.805,-0.801 -1.249,-1.155c-0.842,-0.67 -1.8,-1.246 -2.802,-1.64c-0.394,-0.155 -1.216,0.058 -1.216,-0.365c0,-0.1 1.351,0.282 1.351,0.091c-0,-2.088 -4.639,-4.57 -5.976,-5.773c-1.204,-1.083 -6.659,5.749 -8.239,7.171c-2.487,2.239 -9.94,8.158 -12.728,8.994c-0.07,0.021 -0.541,0.415 -0.541,0.456c0,0.857 1.695,-0.272 2.533,-0.456c2.556,-0.562 4.429,-1.768 6.347,-3.494c0.229,-0.206 2.13,-2.765 2.127,-2.765c-2.242,-0 -4.733,6.433 -5.571,8.021c-0.241,0.458 -0.607,1.428 -0.607,1.428c-0,0 2.304,-4.245 3.14,-6.502c0.197,-0.534 -0.317,1.094 -0.473,1.641c-0.244,0.852 -0.489,1.703 -0.743,2.552c-0.531,1.778 -2.02,4.785 -1.756,6.685c0.004,0.026 0.328,-0.602 1.385,-3.039c0.883,-2.036 1.538,-4.734 2.87,-6.532c0.2,-0.272 -0.274,1.844 -0.608,3.16c-0.265,1.043 -2.076,5.289 -1.52,6.289c0.319,0.574 0.222,-1.762 0.878,-1.762c0.103,0 -1.098,4.652 -0.54,4.953c1.544,0.833 3.411,-6.563 2.6,-2.036c-0.196,1.093 -0.172,0.946 -0.405,1.884c-0.215,0.863 -0.709,1.957 -0.709,2.856c-0,0.507 0.537,-0.86 0.776,-1.306c0.387,-0.724 0.599,-1.733 1.114,-2.37c0.432,-0.535 1.345,-0.048 1.992,-0.456c1.329,-0.837 2.263,-2.231 3.444,-3.251c4.015,-3.469 9.119,-5.624 12.999,-9.116c0.15,-0.135 1.306,-0.942 1.216,-1.185c-0.095,-0.256 -0.683,-0.183 -0.878,-0.183c-3.297,0 -8.225,6.372 -10.433,8.326c-1.663,1.472 -3.41,2.901 -3.41,2.887c-0,-2.547 5.846,-10.01 7.191,-12.458c0.732,-1.331 1.369,-2.689 1.992,-4.072c0.124,-0.274 0.672,-0.82 0.372,-0.82c-0.879,-0 -6.912,8.45 -7.529,9.328c-0.869,1.234 -1.753,2.436 -2.566,3.707c-0.447,0.698 -2.111,2.127 -1.283,2.127c1.187,0 5.853,-8.711 6.448,-9.906c0.508,-1.017 0.985,-2.049 1.486,-3.069c0.283,-0.576 1.459,-1.916 0.844,-1.732c-1.566,0.47 -6.223,7.696 -7.36,9.177c-1.021,1.328 -2.146,2.589 -3.039,4.011c-0.249,0.397 -1.178,1.215 -0.709,1.215c0.524,0 3.648,-6.154 4.896,-8.325c0.726,-1.264 3.662,-6.215 3.612,-6.26c-0.342,-0.308 -2.898,2.901 -3.005,3.039c-2.345,3.026 -8.495,13.187 -8.643,13.187c-0.068,0 0.092,-0.1 0.135,-0.152c0.831,-0.997 1.468,-2.324 2.127,-3.433c1.099,-1.851 5.606,-7.858 4.626,-10.21c-0.175,-0.419 -0.861,0.378 -1.148,0.729c-0.862,1.053 -5.039,8.647 -3.444,8.934" style="fill:none;stroke:#080000;stroke-width:6.26px;"/><path d="M80.349,139.771c-0.977,-0 -2.183,-2.755 -2.903,-3.404c-0.342,-0.307 0.644,0.658 0.979,0.973c0.719,0.675 2.87,1.984 2.87,3.16c-0,0.323 -2.999,-1.216 -3.107,-1.216c-0.512,0 0.531,0.878 0.811,1.307c0.265,0.407 1.67,2.917 2.127,2.917c0.389,-0 -0.631,-0.463 -0.979,-0.638c-0.582,-0.293 -1.666,-1.185 -2.33,-1.185c-0.047,-0 0.822,0.773 0.844,0.79c0.233,0.18 2.728,1.708 2.971,1.489c0.06,-0.054 -0.876,-1.153 -0.878,-1.155c-2.114,-2.537 -4.875,-4.337 -7.157,-6.685c-0.505,-0.519 -3.801,-4.419 -1.418,-3.403" style="fill:none;stroke:#080000;stroke-width:6.26px;"/><path d="M38.82,116.222c-1.765,-0.265 -3.882,1.565 -3.882,-1.094c-0,-0.486 -0.249,-1.782 0.168,-2.158c0.054,-0.048 -0.012,0.144 -0.033,0.213c-0.481,1.587 -2.094,3.721 -2.094,5.348c0,0.296 0.536,-0.255 0.811,-0.365c0.629,-0.251 1.25,-0.287 1.924,-0.334" style="fill:none;stroke:#080000;stroke-width:6.26px;"/><path d="M80.721,140.712c-0.838,0 -1.617,-1.701 -2.6,-1.701c-1.077,-0 2.195,2.37 2.195,2.37c-0,-0 -3.782,-3.12 -5.673,-4.679c-1.563,-1.29 -11.702,-4.308 -12.627,-6.807c-0.018,-0.049 0.076,-0.075 0.101,-0.121c0.839,-1.51 2.555,-2.449 3.545,-3.859c1.86,-2.65 2.93,-5.563 4.761,-7.87c1.507,-1.9 3.116,-3.862 5.098,-5.348c0.076,-0.057 0.648,-0.45 0.743,-0.365c0.016,0.014 -0.198,0.766 -0.203,0.79c-0.57,2.772 -1.181,5.525 -1.181,8.356c-0,0.368 0.439,-0.6 0.574,-0.942c0.186,-0.473 1.228,-4.892 1.553,-4.892c0.868,0 0.337,2.583 0.337,2.583c0,0 0.057,-0.795 0.135,-1.185c0.407,-2.015 1.216,-3.86 1.216,-5.864c-0,-0.359 -1.148,-3.768 -0.371,-3.768c0.076,-0 -0.16,0.74 -0.169,0.79c-0.149,0.772 -0.189,1.559 -0.27,2.339c-0.204,1.94 -0.459,3.913 -0.304,5.865c0.135,1.7 1.047,0.793 2.397,1.914c0.626,0.52 2.367,1.884 1.553,1.884c-1.301,0 -2.588,-2.34 -4.153,-2.34c-1.246,0 2.186,3.505 0.946,3.616c-2.072,0.187 -4.432,-3.187 -6.314,-2.461c-1.782,0.687 -1.249,5.591 -1.249,5.591c-0,0 2.111,-4.254 0.675,-4.254c-0.417,0 -1.489,4.544 -1.655,5.074c-0.111,0.357 -0.609,1.094 -0.236,1.094c0.587,0 0.777,-2.167 0.777,-1.58c-0,4.381 -3.541,7.709 0.54,8.934c0.304,0.091 0.487,-0.422 0.54,-0.608c0.708,-2.469 -0.604,-5.42 0.27,-7.779c0.278,-0.749 0.57,1.499 0.743,2.279c0.148,0.668 1.449,5.108 0.844,5.652c-0.448,0.403 -0.319,-1.166 -0.405,-1.762c-0.398,-2.762 -0.063,-6.83 0.236,-6.776c0.774,0.139 1.46,6.006 1.587,6.776c0.329,1.982 0.47,2.589 0.507,2.491c0.722,-1.95 -0.298,-9.304 0.877,-10.361c0.306,-0.275 0.257,0.782 0.338,1.185c0.235,1.161 0.374,2.352 0.54,3.524c0.103,0.722 1.522,6.197 0.979,6.685c-0.264,0.239 -1.218,-6.928 -0.574,-6.928c0.459,0 1.079,2.801 1.148,3.1c0.172,0.744 0.84,6.155 0.169,2.734c-0.191,-0.973 -0.383,-1.944 -0.574,-2.917c-0.139,-0.711 -0.884,-3.14 -0.337,-3.828c0.179,-0.226 1.008,0.918 1.046,0.972c0.921,1.297 1.655,2.709 2.566,4.011c1.024,1.463 1.891,2.607 1.891,2.309c-0,-2.24 -1.214,-4.95 -2.161,-6.928c-0.058,-0.121 -1.171,-2.886 -1.08,-2.886c0.79,-0 2.927,3.384 3.444,3.98c0.503,0.58 2.321,1.702 1.553,1.702c-0.109,-0 -1.849,-3.119 -2.127,-3.403c-0.249,-0.254 -3.317,-2.568 -3.14,-2.887c0.143,-0.259 0.58,0.14 0.844,0.273c1.316,0.667 4.206,3.92 5.537,3.92c0.577,0 -0.627,-0.97 -0.979,-1.428c-0.813,-1.057 -3.377,-3.05 -3.377,-4.467c0,-0.037 0.031,-0.081 0.068,-0.091c2.275,-0.585 5.238,4.587 7.563,3.89c0.043,-0.013 -0.928,-1.5 -0.945,-1.52c-0.448,-0.517 -3.092,-3.073 -3.816,-2.856c-0.3,0.09 0.481,0.405 0.743,0.577c1.133,0.746 2.354,1.237 3.646,1.611c2.626,0.759 5.471,2.668 7.53,4.892c1.615,1.745 3.571,4.287 4.22,6.624c1.08,3.888 -0.071,14.112 -3.95,16.439c-0.761,0.456 -13.891,-7.045 -15.16,-9.329c-0.246,-0.443 0.968,0.316 1.418,0.547c1.177,0.605 2.217,1.413 3.343,2.097c0.445,0.271 1.384,1.251 1.384,0.729c0,-1.188 -2.75,-3.503 -3.478,-4.254c-0.671,-0.692 -2.956,-2.096 -1.992,-2.096c0.467,-0 1.629,1.527 1.891,1.823c0.281,0.316 0.912,1.304 0.912,0.881c-0,-1.627 -1.792,-3.594 -2.431,-5.014c-0.127,-0.282 -0.475,-0.866 -0.169,-0.911c1.835,-0.276 4.153,3.707 4.153,3.707c-0,-0 -0.176,-0.543 -0.237,-0.821c-0.305,-1.413 -0.766,-2.76 -1.215,-4.132c-0.153,-0.468 -0.863,-1.428 -0.371,-1.428c0.676,-0 2.777,3.982 2.836,3.798c0.62,-1.954 -0.627,-9.964 1.519,-4.041c0.165,0.453 0.608,1.367 0.608,1.853c-0,0.455 -0.226,-0.884 -0.27,-1.337c-0.071,-0.715 -0.345,-2.144 0.033,-2.826c0.16,-0.287 0.31,0.58 0.439,0.881c0.39,0.905 0.511,2.105 0.98,2.948c0.127,0.23 -0.04,-0.53 -0,-0.79c0.058,-0.383 0.073,-1.499 0.438,-1.763c0.59,-0.424 1.962,2.705 2.499,2.705c0.656,-0 -0.345,-2.042 0.304,-1.945c2.581,0.387 7.33,7.996 2.667,11.547c-3.567,2.716 -5.59,-1.241 -8.812,-3.312c-0.497,-0.32 -1.418,-1.064 -1.418,-1.064c-0,0 0.408,0.112 0.608,0.182c0.48,0.17 5.088,3.177 5.3,2.796c1.609,-2.895 -3.819,-7.612 -4.49,-10.027c-0.182,-0.656 0.822,1.085 1.215,1.641c0.65,0.919 1.358,1.794 2.06,2.673c0.347,0.436 0.844,1.733 1.114,1.246c0.611,-1.098 -1.532,-4.954 -1.857,-6.016c-0.094,-0.31 -0.552,-0.871 -0.236,-0.942c0.335,-0.075 1.65,1.774 4.389,6.472c1.021,1.752 1.519,2.547 1.519,2.431c0,-3.44 -3.107,-7.413 -4.119,-10.635c-0.093,-0.297 -0.434,-0.703 -0.202,-0.912c0.635,-0.571 0.566,1.613 0.81,2.431c0.575,1.927 1.27,3.824 1.958,5.713c0.283,0.775 0.33,0.87 0.642,1.58c0.139,0.317 0.27,1.245 0.439,0.942c1.485,-2.674 -6.7,-10.695 -6.179,-13.978c0.094,-0.59 1.006,0.647 1.486,1.003c0.332,0.247 4.443,3.801 4.963,3.099c0.638,-0.861 -3.29,-4.527 -4.254,-4.527c-0.325,-0 0.366,0.543 0.607,0.76c0.744,0.669 2.403,2.157 3.478,2.157c0.388,-0 -0.371,-0.694 -0.642,-0.972c-0.569,-0.586 -1.562,-1.5 -2.464,-1.398c-0.967,0.109 1.537,1.586 1.418,2.552" style="fill:none;stroke:#080000;stroke-width:6.26px;"/></svg>