<?xml version="1.0" encoding="UTF-8" standalone="no"?><!DOCTYPE svg PUBLIC "-//W3C//DTD SVG 1.1//EN" "http://www.w3.org/Graphics/SVG/1.1/DTD/svg11.dtd"><svg width="100%" height="100%" viewBox="0 0 109 149" version="1.1" xmlns="http://www.w3.org/2000/svg" xmlns:xlink="http://www.w3.org/1999/xlink" xml:space="preserve" xmlns:serif="http://www.serif.com/" style="fill-rule:evenodd;clip-rule:evenodd;stroke-linecap:round;stroke-linejoin:round;stroke-miterlimit:1.5;"><path d="M55.398,98.68c14.239,-4.435 28.301,-20.534 39.046,-30.688c3.706,-3.503 11.54,-8.701 10.256,-14.719c-1.234,-5.787 -9.107,-9.93 -13.389,-13.138c-4.181,-3.132 -7.478,-7.457 -11.058,-11.249c-5.404,-5.723 -20.352,-25.985 -28.541,-25.327c-9.926,0.798 -14.878,14.88 -19.733,21.838c-5.052,7.241 -12.745,13.917 -19.423,19.653c-3.03,2.604 -8.35,4.748 -8.944,9.206c-0.776,5.826 5.22,11.569 9.318,14.712c6.933,5.316 25.417,18.798 25.687,27.675c0.266,8.731 -10.781,14.144 -16.367,19.452c-2.57,2.442 -4.599,5.286 -6.706,8.116c-4.352,5.844 -7.245,10.293 -1.153,16.312c1.257,1.242 4.394,4.454 6.316,4.232c10.304,-1.192 18.485,-20.98 24.424,-28.39c1.83,-2.283 6.189,-9.93 10.077,-8.149c3.37,1.544 5.786,5.38 8.044,8.164c4.905,6.047 17.89,24.88 24.793,27.071c10.872,3.45 16.041,-10.787 8.559,-19.668c-8.77,-10.41 -27.461,-20.252 -28.53,-34.928" style="fill:none;stroke:#080000;stroke-width:7.09px;"/><path d="M68.918,79.91c-7.622,-3.167 -9.266,0.889 -14.829,-0.614c-2.718,-0.734 -4.716,-3.364 -6.894,-5.022c-4.669,-3.555 -17.101,-13.002 -19.411,-17.789c-1.729,-3.585 2.546,-7.296 4.96,-9.119c4.137,-3.124 16.88,-13.35 20.803,-14.317c1.389,-0.343 3.332,0.295 4.605,0.743c4.358,1.533 13.037,12.131 16.504,15.583c1.943,1.935 4.836,4.545 4.417,7.616c-0.796,5.837 -9.01,10.208 -13.147,13.114c-2.034,1.43 -10.453,8.024 -12.466,7.689c-4.476,-0.743 -8.148,-6.577 -11.068,-9.677c-3.697,-3.926 -10.888,-8.351 -11.397,-14.279c-0.393,-4.584 3.503,-7.03 6.852,-9.513c7.266,-5.39 15.277,-11.307 24.75,-10.635" style="fill:none;stroke:#080000;stroke-width:7.09px;"/><path d="M50.123,27.094c-2.018,-1.816 -7.213,0.896 -8.003,3.028c-0.213,0.576 0.681,-0.123 2.243,-1.61c0.651,-0.619 3.931,-3.791 3.547,-4.829c-0.06,-0.161 -2.086,1.997 -2.152,2.074c-0.932,1.086 -3.547,3.292 -3.547,4.911c0,0.214 0.431,-0.094 0.606,-0.219c1.454,-1.032 2.488,-3.465 4.062,-4.174c0.311,-0.14 -2.311,3.954 -1.576,4.202c1.056,0.356 2.566,-3.177 3.759,-2.238c0.384,0.302 1.818,-0.49 1.455,-0.163c-2.323,2.09 -6.44,3.006 -8.488,4.665c-3.773,3.056 -7.019,7.105 -11.004,9.794c-0.068,0.046 -9.387,10.562 -8.791,8.594" style="fill:none;stroke:#080000;stroke-width:7.09px;"/><path d="M17.778,53.12c-0.137,0.11 -1.741,1.119 -2.213,1.882c-0.196,0.318 -0.309,1.592 -0.667,1.61c-0.226,0.011 -3.707,-1.647 -3.819,-1.446c-0.211,0.379 0.534,1.572 0.212,1.282c-0.962,-0.866 -1.085,-3.11 -1.546,-2.591c-0.326,0.366 -0.25,1.96 0.334,1.173c3.549,-4.792 6.382,-7.931 11.034,-11.677c6.106,-4.916 12.731,-11.192 17.279,-17.623c1.879,-2.658 2.889,-5.835 4.729,-8.485c2.242,-3.229 7.325,-9.875 12.125,-7.175c1.574,0.885 2.31,2.916 3.729,4.01c1.35,1.042 3.166,0.662 4.547,1.801c0.998,0.823 2.079,2.325 2.698,3.437c0.133,0.24 0.303,0.764 0.303,0.764c-0,0 -2.294,-1.238 -3.304,-0.736c-3.011,1.495 -5.136,2.999 -8.367,4.037c-1.474,0.474 -6.329,3.602 -6.639,3.602c-0.347,-0 0.74,-1.379 1.789,-2.592c1.46,-1.69 2.843,-3.373 4.153,-5.184c0.441,-0.609 1.032,-1.2 1.364,-1.882c0.167,-0.344 0.822,-1.289 0.636,-0.955c-0.485,0.874 -1.802,1.854 -2.485,2.592c-0.689,0.743 -1.378,1.518 -2.092,2.237c-0.159,0.161 -2.995,2.605 -3.001,2.592c-0.707,-1.591 2.543,-5.95 1.94,-6.384c-0.142,-0.103 -0.52,0.329 -0.546,0.354c-0.609,0.61 -3.245,4.815 -4.031,4.638c-0.601,-0.135 0.513,-2.624 0.606,-2.864c0.112,-0.291 0.618,-1.001 0.333,-0.873c-0.473,0.213 -1.546,1.886 -1.546,2.4c0,0.357 3.236,-1.994 3.456,-2.237c1.069,-1.175 7.129,-6.822 8.943,-4.31c1.434,1.986 2.336,6.982 3.152,6.247c0.253,-0.227 -4.729,-3.022 -4.729,-2.946c0,1.646 2.092,4.405 2.759,5.893c0.326,0.727 0.592,1.461 1.122,2.073c0.039,0.045 0.667,0.541 0.667,0.491c-0,-0.685 -7.008,-1.88 -5.487,1.201c0.29,0.586 1.549,-0.819 1.819,-0.819c0.246,0 -0.483,0.111 -0.728,0.137c-0.273,0.029 -2.721,0.284 -2.668,0.572c0.174,0.936 6.226,-0.258 8.458,0.546c1.483,0.534 2.791,1.901 4.001,2.892c0.565,0.462 1.313,2.056 1.668,1.419c0.267,-0.482 -5.57,-5.219 -4.032,-7.394c0.912,-1.29 3.527,4.09 3.729,4.584c0.116,0.284 0.363,0.845 0.363,0.845c0,0 -0.153,-0.457 -0.242,-0.682c-0.489,-1.231 -1.017,-2.442 -1.546,-3.655c-0.084,-0.193 -1.099,-2.795 -0.273,-2.647c1.511,0.272 2.474,2.848 3.092,3.983c0.374,0.688 0.772,2.731 1.152,2.046c0.737,-1.326 -1.254,-3.635 -0.485,-5.019c0.255,-0.459 3.088,2.863 3.395,3.164c0.054,0.053 0.145,0.203 0.182,0.137c0.645,-1.161 -1.758,-3.574 -1.758,-3.574c-0,-0 0.62,3.042 1.303,2.428c0.372,-0.335 -2.035,-3.194 -2.273,-3.465c-0.139,-0.157 -0.549,-0.632 -0.425,-0.464c1.253,1.692 9.398,14.66 9.398,15.878c-0,0.215 -0.369,-0.208 -1.516,-2.101c-0.202,-0.333 -2.72,-4.4 -2.456,-4.637c0.862,-0.776 3.356,2.419 5.608,5.92c0.401,0.622 0.749,1.266 1.061,1.937c0.104,0.222 0.497,0.782 0.273,0.682c-2.895,-1.303 -4.558,-5.562 -7.366,-7.284c-0.051,-0.032 -0.857,-0.536 -0.94,-0.437c-0.32,0.384 1.626,6.384 1.577,6.384c-0.208,-0 -0.385,-0.506 -0.455,-0.628c-1.057,-1.838 -4.699,-5.155 -4.699,-7.202c0,-0.209 0.296,0.299 0.425,0.464c0.547,0.704 1.02,1.4 1.455,2.182c0.546,0.984 4.622,8.952 2.576,8.294" style="fill:none;stroke:#080000;stroke-width:7.09px;"/><path d="M72.919,38.634c-1.425,-1.846 -2.849,-3.692 -4.274,-5.538" style="fill:none;stroke:#080000;stroke-width:7.09px;"/><path d="M68.766,33.505c1.55,1.965 1.593,1.842 2.88,4.037" style="fill:none;stroke:#080000;stroke-width:7.09px;"/><path d="M83.953,47.009c0.437,0.393 -0.844,-0.828 -1.182,-1.309c-0.796,-1.135 -1.543,-2.256 -2.486,-3.274c-0.193,-0.209 -0.606,-0.6 -0.606,-0.6c-0,-0 0.397,0.515 0.606,0.763c1.059,1.259 1.837,2.628 2.577,4.093c0.221,0.437 1.157,1.309 0.667,1.309c-0.781,0 -6.427,-6.629 -7.245,-6.629c-0.16,-0 1.487,1.405 1.758,1.691c1.059,1.12 2.092,2.298 3.031,3.52c0.245,0.318 0.698,0.982 0.698,0.982c-0,-0 -0.608,-0.905 -0.94,-1.337c-1.311,-1.704 -2.907,-3.258 -4.577,-4.611c-4.005,-3.243 -7.272,-8.327 -11.671,-10.967c-0.165,-0.099 0.301,0.239 0.454,0.355c0.607,0.46 1.176,0.948 1.728,1.473c1.522,1.447 3.077,3.091 4.184,4.883c2.484,4.025 6.968,6.478 9.185,10.667c0.79,1.494 1.678,3.155 2.152,4.775c0.039,0.134 0.925,2.714 1.213,2.455c0.027,-0.024 0.004,-0.073 -0,-0.109c-0.302,-2.711 -2.05,-5.874 -1.546,-8.594c0.006,-0.033 0.027,-0.077 0.06,-0.082c1.614,-0.242 2.591,6.03 4.002,6.03c0.535,-0 -0.193,-1.054 -0.273,-1.583c-0.192,-1.262 -0.877,-2.727 -0.758,-4.01c0.046,-0.5 2.413,1.948 2.486,1.882c1.198,-1.078 -4.105,-4.899 -2.668,-6.193c0.578,-0.52 3.847,2.557 4.396,2.974c3.027,2.306 11.753,5.857 9.579,10.749c-0.32,0.72 -2.092,1.555 -2.698,2.373c-0.173,0.234 -1.885,2.342 -2.062,2.183c-0.78,-0.703 -0.25,-4.482 -0.485,-5.538c-0.311,-1.401 -2.152,-3.477 -2.152,-4.747c0,-0.352 0.489,0.506 0.728,0.764c0.666,0.719 1.135,1.6 1.788,2.319c0.483,0.53 2.122,-0.355 2.122,-0.355c0,0 -4.208,-1.962 -5.82,-0.846c-1.029,0.712 -1.34,3.223 -1.819,4.393c-0.11,0.269 -0.424,0.763 -0.424,0.763l0.909,-1.964c0,0 -0.255,4.025 -1.637,3.847c-0.72,-0.093 -0.816,-3.13 -1.182,-2.946c-1.31,0.654 -1.937,5.92 -3.153,5.92c-0.362,-0 0.21,-2.135 0.243,-2.401c0.005,-0.046 0.03,-0.183 0.03,-0.137c0,0.771 -4.268,6.431 -4.699,7.012c-2.249,3.036 -6.812,5.066 -9.579,7.911c-0.272,0.281 -2.903,2.407 -2.637,2.647c0.839,0.755 4.31,-1.21 5.123,-1.528c6.937,-2.715 8.776,-5.449 14.035,-10.858c0.472,-0.485 6.732,-7.2 6.457,-4.474c-0.234,2.314 -4.213,6.922 -6.093,8.402c-1.415,1.115 -2.232,2.992 -3.577,4.202c-2.491,2.242 -5.625,3.382 -8.154,5.483c-2.672,2.22 -4.685,5.253 -7.276,7.584c-3.51,3.16 -4.613,2.875 -7.942,0.328c-0.202,-0.155 -1.667,-1.012 -1.667,-1.228c-0,-0.103 0.88,-0.468 0.94,-0.491c2.892,-1.116 4.751,-2.759 7.517,-3.656c0.916,-0.296 1.619,-0.843 2.365,-1.418c0.268,-0.207 1.26,-0.126 0.97,-0.3c-2.284,-1.371 -9.649,4.911 -11.428,4.037c-1.13,-0.554 -1.702,-2.685 -3.001,-3.492c-1.046,-0.648 -3.396,-1.446 -3.396,-1.446c0,0 0.537,0.311 0.789,0.491c1.07,0.771 2.139,1.557 3.273,2.238c0.485,0.29 2.051,0.818 1.486,0.818c-1.163,-0 -3.219,-1.036 -4.396,-1.364c-0.535,-0.149 -1.074,-0.277 -1.606,-0.437c-0.199,-0.059 -0.784,-0.243 -0.607,-0.136c1.721,1.032 3.846,1.606 5.366,2.974c0.155,0.139 -0.382,-0.169 -0.576,-0.246c-0.56,-0.222 -1.153,-0.448 -1.728,-0.627c-1.547,-0.483 -3.507,-1.364 -5.153,-1.364c-0.197,-0 0.227,0.322 0.364,0.463c0.988,1.031 2.145,1.902 3.092,2.974c0.255,0.289 1.113,0.9 0.727,0.9c-1.78,0 -8.726,-5.494 -9.579,-5.238c-0.195,0.059 0.286,0.295 0.455,0.41c1.083,0.731 2.18,1.58 3.152,2.455c0.116,0.104 0.334,0.327 0.334,0.327c-0,0 -0.615,-0.454 -0.94,-0.655c-1.342,-0.83 -5.395,-3.913 -7.033,-3.492c-0.774,0.199 0.87,1.341 1.334,1.992c0.898,1.26 2.221,2.388 2.971,3.738c0.283,0.51 -0.985,-0.628 -1.486,-0.928c-0.695,-0.417 -3.072,-2.243 -3.91,-1.992c-0.267,0.08 0.245,0.502 0.394,0.737c0.239,0.377 1.177,2.019 1.698,2.019c0.322,-0 -3.023,-2.679 -3.972,-3.41c-2.589,-1.997 -4.636,-4.354 -7.517,-5.975c-7.451,-4.191 -12.04,-13.263 -18.037,-18.66c-0.111,-0.1 0.432,-0.206 2.577,1.282c1.732,1.202 3.378,2.573 5.062,3.847c0.076,0.057 2.183,1.481 2.183,1.473c-0,-0.345 -3.161,-7.185 -2.911,-7.23c0.879,-0.158 3.459,5.186 4.366,6.002c0.21,0.189 -0.042,-0.564 -0.061,-0.846c-0.024,-0.353 -0.457,-4.037 0.03,-4.037c1.159,-0 1.263,3.355 1.91,3.355c0.43,0 -0.242,-0.829 -0.303,-1.255c-0.129,-0.9 -2.112,-7.219 -0.334,-6.629c1.809,0.6 2.296,4.892 2.638,6.357c1.092,4.678 2.199,10.319 7.214,12.576c0.264,0.119 -0.276,-0.51 -0.454,-0.736c-0.825,-1.049 -1.979,-1.761 -3.001,-2.592c-2.173,-1.766 -4.171,-3.665 -6.002,-5.784c-0.107,-0.122 -0.172,-0.354 -0.334,-0.354c-0.223,-0 0.265,0.362 0.425,0.518c0.615,0.6 1.228,1.182 1.879,1.746c1.744,1.51 3.561,2.954 5.366,4.392c0.479,0.383 1.394,1.201 1.394,1.201c-0,-0 -4.426,-2.474 -6.518,-3.902c-0.716,-0.489 -1.377,-1.034 -2,-1.636c-0.205,-0.198 -0.818,-0.791 -0.607,-0.601c2.378,2.14 4.308,4.746 6.791,6.821c1.675,1.4 3.568,2.278 5.456,3.328c1.537,0.854 7.2,6.388 7.912,5.32c0.037,-0.056 0.035,-0.3 0.03,-0.355c-0.112,-1.413 -8.476,-10.912 -8.669,-10.912c-0.718,-0 1.098,0.926 1.667,1.364c1.27,0.976 2.55,1.93 3.789,2.946c3.466,2.844 7.205,4.695 10.762,7.23c5.469,3.896 -0.941,13.203 1.879,15.741c0.485,0.436 -0.432,-1.232 -0.697,-1.828c-0.725,-1.631 -1.789,-5.047 -1.789,-5.047c0,0 -0.095,0.638 -0.151,0.955c-0.265,1.497 -0.504,2.992 -0.849,4.474c-0.107,0.457 -0.314,2.226 -0.788,2.51c-0.182,0.109 -0.184,-0.39 -0.212,-0.6c-0.221,-1.638 0.589,-7.054 -0.637,-8.157c-0.064,-0.058 -0.903,4.702 -1.303,4.774c-0.704,0.126 -0.86,-4.229 -2.547,-4.229c-0.995,0 -1.135,3.347 -1.243,3.056c-0.167,-0.451 -1.241,-5.303 -1.546,-3.247c-0.457,3.084 3.003,3.812 3.547,6.139c0.28,1.195 -0.515,4.038 -0.03,4.91c0.361,0.651 0.534,-1.39 0.758,-2.1c0.354,-1.126 0.697,-2.483 1.273,-3.52c0.213,-0.384 -0.094,0.874 -0.152,1.31c-0.052,0.391 -0.667,2.786 -0.03,3.001c1.088,0.367 1.829,-3.827 2.728,-4.174c0.359,-0.139 0.639,2.659 1.455,2.537c2.314,-0.347 2.006,-5.839 4.426,-6.248c1.101,-0.185 0.78,4.633 1.243,5.348c0.734,1.132 2.138,-3.063 2.698,-2.92c0.639,0.165 0.405,5.273 0.667,3.547" style="fill:none;stroke:#080000;stroke-width:7.09px;"/><path d="M61.157,91.969c-0.018,3.393 -0.919,3.529 0.576,6.22c0.1,0.18 0.086,0.286 -0.091,0.191" style="fill:none;stroke:#080000;stroke-width:7.09px;"/><path d="M68.978,109.21c0.157,0.141 -3.76,-4.417 -3.577,-4.746c0.137,-0.247 0.476,0.311 0.667,0.518c0.788,0.851 1.33,1.906 2.092,2.783c0.155,0.178 0.485,0.755 0.485,0.518c-0,-0.237 -0.202,-0.429 -0.273,-0.655c-0.853,-2.688 -2.471,-5.364 -2.88,-8.157c-0.021,-0.145 -0.243,-1.181 0.121,-1.228c1.739,-0.223 2.58,3.52 3.79,3.52c0.291,-0 -0.368,-0.452 -0.546,-0.682c-0.701,-0.908 -1.474,-1.876 -2.486,-2.456c-0.066,-0.037 -0.243,-0.151 -0.212,-0.082c0.638,1.435 5.694,7.199 5.032,8.54c-0.058,0.117 -0.337,0.009 -0.364,-0c-4.017,-1.446 -6.547,-5.702 -9.518,-8.376c-0.147,-0.132 0.228,0.324 0.333,0.491c0.322,0.513 0.616,1.034 0.97,1.528c1.22,1.7 2.609,3.245 4.002,4.802c0.347,0.388 1,1.2 1,1.2c0,-0 -0.409,-0.487 -0.636,-0.709c-1.012,-0.989 -2.09,-1.906 -3.153,-2.838c-0.138,-0.121 -1.844,-2.021 -1.971,-1.964c-0.243,0.109 1.106,1.837 3.123,4.201c2.289,2.685 3.666,5.29 5.365,8.348c0.598,1.077 0.445,2.571 1.001,3.738c2.372,4.981 13.043,21.771 18.703,21.771c6.747,-0 0.44,-10.595 1.88,-11.459c0.385,-0.231 2.323,3.748 2.637,3.465c0.567,-0.51 -1.56,-5.192 -1.698,-5.429c-0.333,-0.573 -1.033,-0.452 -1.576,-1.091" style="fill:none;stroke:#080000;stroke-width:7.09px;"/><path d="M90.956,124.352c-4.578,-4.775 -8.762,-9.382 -13.793,-13.586c-0.063,-0.053 -0.124,-0.107 -0.182,-0.164c-0.46,-0.452 -3.922,-3.891 -4.214,-3.629c-0.404,0.364 1.863,4.335 2.092,4.775c2.505,4.816 5.169,9.138 7.912,13.722c0.165,0.275 0.12,0.203 0.273,0.437c0.05,0.076 0.075,0.167 0.121,0.245c1.197,2.035 2.835,6.054 4.82,7.393c0.099,0.067 0.937,0.661 0.94,0.655c0.396,-0.713 0.103,-2.441 0.212,-3.274c0.538,-4.115 -1.029,-6.783 -4.79,-8.921c-0.681,-0.387 -1.578,-0.165 -2.182,-0.709c-3.376,-3.038 -11.146,-14.038 -10.671,-18.742c0.017,-0.168 1.061,1.24 1.152,1.364c0.75,1.026 1.601,2.068 2.547,2.919c1.19,1.071 9.439,8.763 8.609,10.258c-0.129,0.232 -4.005,-1.984 -4.184,-2.074c-3.912,-1.976 -7.971,-3.153 -10.609,-6.847c-2.053,-2.874 -4.706,-4.156 -4.729,-4.092c-0.05,0.133 0.058,0.332 0.091,0.436c0.006,0.022 5.812,12.138 3.88,10.012c-1.145,-1.258 -1.381,-3.391 -2.395,-4.801c-0.965,-1.342 -2.601,-1.931 -3.789,-3.001c-1.708,-1.537 -2.335,-4.611 -4.153,-5.702c-1.741,-1.045 -9.377,-4.155 -9.004,-1.8" style="fill:none;stroke:#080000;stroke-width:7.09px;"/><path d="M31.177,123.315c-7.737,-3.482 -20.032,8.427 -11.822,13.968c2.53,1.708 7.38,-4.514 8.942,-5.92c0.085,-0.077 1.128,-1.058 1.152,-1.037c0.026,0.023 -2.713,1.246 -2.971,1.337c-1.979,0.7 -3.347,1.405 -5.365,1.664c-0.116,0.015 -1.385,0.31 -1.122,-0.163c1.871,-3.368 6.153,-4.939 8.912,-7.53c2.182,-2.049 4.892,-5.283 4.911,-5.265c0.077,0.069 -0.707,1.117 -0.727,1.145c-0.869,1.224 -9.286,7.8 -10.368,4.393c-0.802,-2.529 3.892,-5.08 5.457,-6.22c2.418,-1.762 5.053,-3.773 7.033,-6.03c3.678,-4.193 7.27,-12.179 12.398,-14.486c3.349,-1.507 5.37,3.137 8.003,3.137l1.121,0c0,0 -0.97,-0.15 -1.455,-0.109c-1.984,0.17 -5.731,0.194 -7.305,1.719c-2.66,2.578 -4.133,6.006 -6.215,9.003c-2.899,4.174 -6.692,7.037 -9.063,11.731c-0.734,1.453 -4.244,4.457 -4.244,5.783c-0,0.685 1.011,-0.924 1.485,-1.418c1.071,-1.118 1.922,-2.414 2.759,-3.711c2.094,-3.245 4.282,-7.122 7.002,-9.875c0.27,-0.274 0.867,-0.589 0.424,-0.873" style="fill:none;stroke:#080000;stroke-width:7.09px;"/></svg>